<?xml version="1.0" encoding="utf-8"?>
<!-- Generator: Adobe Illustrator 26.0.2, SVG Export Plug-In . SVG Version: 6.00 Build 0)  -->
<svg version="1.1" id="Ebene_1" xmlns="http://www.w3.org/2000/svg" xmlns:xlink="http://www.w3.org/1999/xlink" x="0px" y="0px"
	 viewBox="0 0 550 300" style="enable-background:new 0 0 550 300;" xml:space="preserve">
<style type="text/css">
	.st0{fill:#333333;}
	.st1{fill:#54BCE8;}
	.st2{fill:#4590C3;}
	.st3{fill:#2E6CA4;}
</style>
<g>
	<g>
		<path class="st0" d="M236.3,213.7c0-1.6,0.3-3.2,0.9-4.8c0.6-1.6,1.4-3,2.5-4.3c1.1-1.3,2.5-2.3,4.1-3.1c1.6-0.8,3.4-1.2,5.4-1.2
			c2.4,0,4.5,0.5,6.2,1.6c1.7,1.1,3,2.5,3.9,4.2l-3.3,2.2c-0.4-0.8-0.8-1.5-1.4-2c-0.5-0.6-1.1-1-1.7-1.3c-0.6-0.3-1.3-0.6-2-0.7
			c-0.7-0.1-1.3-0.2-2-0.2c-1.4,0-2.6,0.3-3.7,0.8c-1.1,0.6-1.9,1.3-2.6,2.2c-0.7,0.9-1.3,2-1.6,3.1c-0.4,1.2-0.5,2.3-0.5,3.5
			c0,1.3,0.2,2.5,0.6,3.7c0.4,1.2,1,2.2,1.8,3.1c0.8,0.9,1.7,1.6,2.7,2.2c1.1,0.5,2.2,0.8,3.5,0.8c0.7,0,1.3-0.1,2-0.2
			c0.7-0.2,1.4-0.4,2-0.8c0.6-0.4,1.2-0.8,1.8-1.4c0.5-0.6,1-1.2,1.3-2l3.5,2c-0.4,1-1,1.9-1.8,2.6c-0.8,0.8-1.7,1.4-2.6,1.9
			c-1,0.5-2,0.9-3.1,1.2c-1.1,0.3-2.2,0.4-3.2,0.4c-1.9,0-3.6-0.4-5.1-1.2c-1.6-0.8-2.9-1.8-4-3.1c-1.1-1.3-2-2.8-2.6-4.4
			C236.6,217,236.3,215.4,236.3,213.7z"/>
		<path class="st0" d="M272.8,227.6c-1.6,0-2.9-0.3-4.2-0.8s-2.3-1.3-3.2-2.2c-0.9-0.9-1.6-2-2-3.2c-0.5-1.2-0.7-2.5-0.7-3.9
			c0-1.4,0.2-2.6,0.7-3.9c0.5-1.2,1.2-2.3,2-3.2c0.9-0.9,2-1.7,3.2-2.2c1.2-0.6,2.6-0.8,4.1-0.8c1.5,0,2.9,0.3,4.1,0.8
			c1.2,0.6,2.3,1.3,3.2,2.2c0.9,0.9,1.6,2,2,3.2c0.5,1.2,0.7,2.5,0.7,3.9c0,1.4-0.2,2.6-0.7,3.9c-0.5,1.2-1.2,2.3-2,3.2
			c-0.9,0.9-2,1.7-3.2,2.2C275.7,227.3,274.3,227.6,272.8,227.6z M266.9,217.4c0,1,0.2,1.8,0.5,2.6c0.3,0.8,0.7,1.5,1.2,2.1
			c0.5,0.6,1.1,1.1,1.9,1.4c0.7,0.3,1.5,0.5,2.3,0.5s1.6-0.2,2.3-0.5s1.3-0.8,1.9-1.4c0.5-0.6,0.9-1.3,1.2-2.1
			c0.3-0.8,0.5-1.7,0.5-2.6c0-0.9-0.2-1.8-0.5-2.6s-0.7-1.5-1.2-2.1c-0.5-0.6-1.1-1.1-1.9-1.4c-0.7-0.3-1.5-0.5-2.3-0.5
			c-0.8,0-1.6,0.2-2.3,0.5c-0.7,0.4-1.3,0.8-1.9,1.4c-0.5,0.6-0.9,1.3-1.3,2.1C267.1,215.6,266.9,216.5,266.9,217.4z"/>
		<path class="st0" d="M317.4,227.2h-4.1v-11c0-1.8-0.3-3.2-0.9-4c-0.6-0.9-1.5-1.3-2.6-1.3c-1.2,0-2.2,0.4-3.2,1.3
			c-1,0.9-1.7,2-2.1,3.4v11.6h-4.1v-11c0-1.9-0.3-3.2-0.9-4c-0.6-0.8-1.5-1.3-2.6-1.3c-1.2,0-2.3,0.4-3.2,1.3c-1,0.9-1.7,2-2.1,3.3
			v11.7h-4.1v-19.6h3.8v3.9c0.8-1.4,1.8-2.4,3.1-3.2c1.3-0.7,2.7-1.1,4.3-1.1c1.6,0,2.9,0.4,3.8,1.3c0.9,0.9,1.5,1.9,1.7,3.2
			c0.8-1.5,1.9-2.6,3.1-3.3c1.3-0.8,2.7-1.1,4.3-1.1c1.2,0,2.1,0.2,2.9,0.7c0.8,0.4,1.4,1,1.8,1.7c0.5,0.7,0.8,1.6,0.9,2.5
			c0.2,1,0.3,2,0.3,3.1V227.2z"/>
		<path class="st0" d="M334.2,227.6c-1.6,0-3-0.4-4.2-1.1s-2.2-1.7-2.9-2.9v11.7H323v-27.6h3.6v3.5c0.8-1.2,1.7-2.1,2.9-2.8
			c1.2-0.7,2.5-1.1,4-1.1c1.4,0,2.6,0.3,3.7,0.8c1.1,0.6,2.1,1.3,2.9,2.2c0.8,0.9,1.5,2,1.9,3.2c0.5,1.2,0.7,2.5,0.7,3.9
			c0,1.4-0.2,2.8-0.6,4c-0.4,1.2-1,2.3-1.8,3.2c-0.8,0.9-1.7,1.6-2.8,2.2C336.6,227.3,335.4,227.6,334.2,227.6z M332.8,224
			c0.9,0,1.7-0.2,2.4-0.6c0.7-0.4,1.3-0.9,1.8-1.5c0.5-0.6,0.9-1.3,1.2-2.1c0.3-0.8,0.4-1.6,0.4-2.5c0-0.9-0.2-1.8-0.5-2.6
			c-0.3-0.8-0.7-1.5-1.3-2.1c-0.5-0.6-1.2-1.1-1.9-1.4c-0.8-0.4-1.6-0.5-2.4-0.5c-0.5,0-1.1,0.1-1.7,0.3c-0.6,0.2-1.1,0.5-1.6,0.8
			c-0.5,0.4-0.9,0.8-1.3,1.2c-0.4,0.5-0.6,1-0.8,1.5v5.1c0.2,0.6,0.6,1.2,1,1.7c0.4,0.5,0.8,1,1.3,1.4c0.5,0.4,1,0.7,1.6,0.9
			C331.6,223.9,332.2,224,332.8,224z"/>
		<path class="st0" d="M353.5,227.6c-2.1,0-3.6-0.7-4.7-2c-1.1-1.3-1.6-3.3-1.6-6v-12h4.1v11.2c0,3.5,1.3,5.3,3.8,5.3
			c1.2,0,2.3-0.4,3.3-1.1c1.1-0.7,1.9-1.8,2.4-3.2v-12.2h4.1v14.8c0,0.5,0.1,0.8,0.2,1c0.2,0.2,0.5,0.3,0.9,0.3v3.5
			c-0.4,0.1-0.8,0.1-1.1,0.2c-0.3,0-0.5,0-0.8,0c-0.8,0-1.4-0.2-1.9-0.6c-0.5-0.4-0.8-0.9-0.8-1.6l-0.1-2c-0.9,1.4-2,2.5-3.4,3.2
			C356.7,227.2,355.2,227.6,353.5,227.6z"/>
		<path class="st0" d="M381.7,226.2c-0.5,0.3-1.3,0.5-2.2,0.8c-0.9,0.3-1.9,0.5-3,0.5c-0.7,0-1.3-0.1-1.8-0.3
			c-0.6-0.2-1.1-0.4-1.5-0.8c-0.4-0.4-0.8-0.8-1-1.4c-0.3-0.6-0.4-1.2-0.4-2v-12.3h-2.6v-3.2h2.6v-6.5h4.1v6.5h4.3v3.2h-4.3v11
			c0,0.7,0.3,1.2,0.7,1.5c0.4,0.3,0.9,0.5,1.4,0.5c0.6,0,1.1-0.1,1.7-0.3c0.5-0.2,0.9-0.4,1.2-0.5L381.7,226.2z"/>
		<path class="st0" d="M390.7,227.6c-1,0-1.8-0.2-2.6-0.5c-0.8-0.3-1.5-0.7-2.1-1.3c-0.6-0.6-1.1-1.2-1.4-2
			c-0.3-0.8-0.5-1.6-0.5-2.4c0-0.9,0.2-1.8,0.6-2.5c0.4-0.8,1-1.4,1.7-2c0.7-0.6,1.6-1,2.6-1.3c1-0.3,2.1-0.5,3.4-0.5
			c0.9,0,1.8,0.1,2.7,0.2c0.9,0.2,1.7,0.4,2.4,0.7v-1.4c0-1.5-0.4-2.6-1.2-3.4c-0.8-0.8-2-1.2-3.6-1.2c-1.1,0-2.1,0.2-3.1,0.6
			c-1,0.4-2.1,0.9-3.1,1.7l-1.3-2.6c2.5-1.7,5.2-2.6,7.9-2.6c2.7,0,4.8,0.7,6.3,2.1c1.5,1.4,2.3,3.4,2.3,5.9v7.1
			c0,0.9,0.4,1.3,1.1,1.4v3.5c-0.4,0.1-0.7,0.1-1,0.2c-0.3,0-0.6,0-0.8,0c-0.8,0-1.4-0.2-1.9-0.6c-0.4-0.4-0.7-0.9-0.8-1.5l-0.1-1.2
			c-0.9,1.2-2,2-3.2,2.6C393.6,227.3,392.2,227.6,390.7,227.6z M391.9,224.5c1,0,1.9-0.2,2.8-0.5c0.9-0.4,1.6-0.9,2.1-1.5
			c0.5-0.5,0.8-0.9,0.8-1.4v-2.6c-0.7-0.3-1.4-0.5-2.2-0.6c-0.8-0.2-1.6-0.2-2.3-0.2c-1.5,0-2.7,0.3-3.6,1c-0.9,0.6-1.4,1.5-1.4,2.5
			c0,1,0.4,1.8,1.1,2.5C389.8,224.2,390.7,224.5,391.9,224.5z"/>
		<path class="st0" d="M417.9,226.2c-0.5,0.3-1.3,0.5-2.2,0.8c-0.9,0.3-1.9,0.5-3,0.5c-0.7,0-1.3-0.1-1.8-0.3
			c-0.6-0.2-1.1-0.4-1.5-0.8c-0.4-0.4-0.8-0.8-1-1.4c-0.3-0.6-0.4-1.2-0.4-2v-12.3h-2.6v-3.2h2.6v-6.5h4.1v6.5h4.3v3.2h-4.3v11
			c0,0.7,0.3,1.2,0.7,1.5c0.4,0.3,0.9,0.5,1.4,0.5c0.6,0,1.1-0.1,1.7-0.3c0.5-0.2,0.9-0.4,1.2-0.5L417.9,226.2z"/>
		<path class="st0" d="M421.4,204.3v-4.5h4.1v4.5H421.4z M421.4,227.2v-19.6h4.1v19.6H421.4z"/>
		<path class="st0" d="M440.3,227.6c-1.6,0-2.9-0.3-4.2-0.8c-1.2-0.6-2.3-1.3-3.2-2.2c-0.9-0.9-1.6-2-2-3.2
			c-0.5-1.2-0.7-2.5-0.7-3.9c0-1.4,0.2-2.6,0.7-3.9c0.5-1.2,1.2-2.3,2-3.2c0.9-0.9,2-1.7,3.2-2.2c1.2-0.6,2.6-0.8,4.1-0.8
			c1.5,0,2.9,0.3,4.1,0.8c1.2,0.6,2.3,1.3,3.2,2.2c0.9,0.9,1.6,2,2,3.2c0.5,1.2,0.7,2.5,0.7,3.9c0,1.4-0.2,2.6-0.7,3.9
			c-0.5,1.2-1.2,2.3-2,3.2c-0.9,0.9-2,1.7-3.2,2.2S441.8,227.6,440.3,227.6z M434.4,217.4c0,1,0.2,1.8,0.5,2.6
			c0.3,0.8,0.7,1.5,1.2,2.1c0.5,0.6,1.1,1.1,1.9,1.4c0.7,0.3,1.5,0.5,2.3,0.5c0.8,0,1.6-0.2,2.3-0.5c0.7-0.3,1.3-0.8,1.9-1.4
			c0.5-0.6,0.9-1.3,1.2-2.1c0.3-0.8,0.5-1.7,0.5-2.6c0-0.9-0.2-1.8-0.5-2.6c-0.3-0.8-0.7-1.5-1.2-2.1c-0.5-0.6-1.1-1.1-1.9-1.4
			c-0.7-0.3-1.5-0.5-2.3-0.5c-0.8,0-1.6,0.2-2.3,0.5c-0.7,0.4-1.3,0.8-1.9,1.4c-0.5,0.6-0.9,1.3-1.3,2.1
			C434.6,215.6,434.4,216.5,434.4,217.4z"/>
		<path class="st0" d="M472.5,227.2h-4.1v-11c0-1.9-0.3-3.2-0.9-4c-0.6-0.8-1.5-1.3-2.6-1.3c-0.6,0-1.2,0.1-1.8,0.3s-1.2,0.5-1.7,1
			s-1,0.9-1.4,1.5c-0.4,0.6-0.7,1.2-1,1.9v11.7h-4.1v-19.6h3.8v3.9c0.8-1.3,1.8-2.4,3.3-3.1c1.4-0.8,3-1.1,4.7-1.1
			c1.2,0,2.1,0.2,2.9,0.6c0.8,0.4,1.3,1,1.8,1.7c0.4,0.7,0.7,1.6,0.9,2.6c0.2,1,0.3,2,0.3,3.1V227.2z"/>
		<path class="st0" d="M483.4,227.6c-1,0-1.8-0.2-2.6-0.5c-0.8-0.3-1.5-0.7-2.1-1.3c-0.6-0.6-1.1-1.2-1.4-2
			c-0.3-0.8-0.5-1.6-0.5-2.4c0-0.9,0.2-1.8,0.6-2.5c0.4-0.8,1-1.4,1.7-2c0.7-0.6,1.6-1,2.6-1.3c1-0.3,2.1-0.5,3.4-0.5
			c0.9,0,1.8,0.1,2.7,0.2c0.9,0.2,1.7,0.4,2.4,0.7v-1.4c0-1.5-0.4-2.6-1.2-3.4c-0.8-0.8-2-1.2-3.6-1.2c-1.1,0-2.1,0.2-3.1,0.6
			c-1,0.4-2.1,0.9-3.1,1.7l-1.3-2.6c2.5-1.7,5.2-2.6,7.9-2.6c2.7,0,4.8,0.7,6.3,2.1c1.5,1.4,2.3,3.4,2.3,5.9v7.1
			c0,0.9,0.4,1.3,1.1,1.4v3.5c-0.4,0.1-0.7,0.1-1,0.2c-0.3,0-0.6,0-0.8,0c-0.8,0-1.4-0.2-1.9-0.6c-0.4-0.4-0.7-0.9-0.8-1.5l-0.1-1.2
			c-0.9,1.2-2,2-3.2,2.6C486.2,227.3,484.8,227.6,483.4,227.6z M484.5,224.5c1,0,1.9-0.2,2.8-0.5c0.9-0.4,1.6-0.9,2.1-1.5
			c0.5-0.5,0.8-0.9,0.8-1.4v-2.6c-0.7-0.3-1.4-0.5-2.2-0.6s-1.6-0.2-2.3-0.2c-1.5,0-2.7,0.3-3.6,1c-0.9,0.6-1.4,1.5-1.4,2.5
			c0,1,0.4,1.8,1.1,2.5C482.4,224.2,483.4,224.5,484.5,224.5z"/>
		<path class="st0" d="M500,199.8h4.1v21.7c0,0.7,0.2,1.3,0.6,1.7c0.4,0.4,0.9,0.6,1.6,0.6c0.3,0,0.6,0,1-0.2c0.4-0.1,0.7-0.2,1-0.3
			l0.6,3.2c-0.6,0.3-1.3,0.5-2.1,0.7s-1.6,0.2-2.2,0.2c-1.4,0-2.5-0.4-3.3-1.2c-0.8-0.8-1.2-1.9-1.2-3.3V199.8z"/>
		<path class="st0" d="M238,266.7V240h11.6c1.2,0,2.3,0.3,3.3,0.8c1,0.5,1.9,1.2,2.6,2c0.7,0.8,1.3,1.7,1.7,2.8
			c0.4,1,0.6,2.1,0.6,3.2c0,0.9-0.1,1.8-0.4,2.6c-0.3,0.8-0.6,1.6-1.1,2.3c-0.5,0.7-1,1.3-1.7,1.8c-0.7,0.5-1.4,0.9-2.1,1.1
			l6.3,10.1h-4.8l-5.8-9.3h-6.2v9.3H238z M242.2,253.7h7.4c0.6,0,1.1-0.1,1.6-0.4c0.5-0.3,0.9-0.6,1.3-1.1c0.4-0.5,0.6-1,0.8-1.6
			c0.2-0.6,0.3-1.2,0.3-1.9c0-0.7-0.1-1.3-0.4-1.9c-0.2-0.6-0.6-1.1-0.9-1.6c-0.4-0.5-0.8-0.8-1.4-1.1c-0.5-0.3-1-0.4-1.6-0.4h-7.1
			V253.7z"/>
		<path class="st0" d="M271.6,267.1c-1.6,0-2.9-0.3-4.2-0.8c-1.2-0.6-2.3-1.3-3.2-2.2c-0.9-0.9-1.6-2-2-3.2
			c-0.5-1.2-0.7-2.5-0.7-3.9c0-1.4,0.2-2.6,0.7-3.9c0.5-1.2,1.2-2.3,2-3.2c0.9-0.9,2-1.7,3.2-2.2c1.2-0.6,2.6-0.8,4.1-0.8
			c1.5,0,2.9,0.3,4.1,0.8c1.2,0.6,2.3,1.3,3.2,2.2c0.9,0.9,1.6,2,2,3.2c0.5,1.2,0.7,2.5,0.7,3.9c0,1.4-0.2,2.6-0.7,3.9
			c-0.5,1.2-1.2,2.3-2,3.2c-0.9,0.9-2,1.7-3.2,2.2C274.5,266.8,273.1,267.1,271.6,267.1z M265.7,256.9c0,1,0.2,1.8,0.5,2.6
			c0.3,0.8,0.7,1.5,1.2,2.1c0.5,0.6,1.1,1.1,1.9,1.4c0.7,0.3,1.5,0.5,2.3,0.5s1.6-0.2,2.3-0.5c0.7-0.3,1.3-0.8,1.9-1.4
			c0.5-0.6,0.9-1.3,1.2-2.1c0.3-0.8,0.5-1.7,0.5-2.6c0-0.9-0.2-1.8-0.5-2.6s-0.7-1.5-1.2-2.1c-0.5-0.6-1.1-1.1-1.9-1.4
			c-0.7-0.3-1.5-0.5-2.3-0.5c-0.8,0-1.6,0.2-2.3,0.5c-0.7,0.4-1.3,0.8-1.9,1.4c-0.5,0.6-0.9,1.3-1.3,2.1
			C265.9,255.1,265.7,256,265.7,256.9z"/>
		<path class="st0" d="M296.7,267.1c-1.5,0-2.9-0.4-4.1-1.1c-1.2-0.7-2.2-1.7-2.9-2.9v3.6h-3.6v-27.4h4.1v11.5
			c0.8-1.3,1.7-2.2,2.9-3c1.2-0.7,2.5-1.1,4.1-1.1c1.3,0,2.5,0.3,3.6,0.8c1.1,0.6,2,1.3,2.8,2.3c0.8,0.9,1.4,2,1.8,3.3
			c0.4,1.2,0.6,2.5,0.6,3.9c0,1.4-0.2,2.7-0.7,3.9c-0.5,1.2-1.1,2.3-2,3.2c-0.8,0.9-1.8,1.6-2.9,2.2
			C299.3,266.8,298,267.1,296.7,267.1z M295.6,263.5c0.9,0,1.7-0.2,2.5-0.5c0.8-0.4,1.4-0.8,1.9-1.4c0.5-0.6,1-1.3,1.3-2.1
			c0.3-0.8,0.5-1.6,0.5-2.5c0-0.9-0.1-1.7-0.4-2.5c-0.3-0.8-0.7-1.5-1.2-2.1c-0.5-0.6-1.1-1.1-1.8-1.5c-0.7-0.4-1.5-0.6-2.3-0.6
			c-1.3,0-2.4,0.4-3.4,1.2c-1,0.8-1.7,1.8-2.3,3v5.2c0.2,0.6,0.4,1.1,0.8,1.6c0.4,0.5,0.8,0.9,1.3,1.2c0.5,0.4,1,0.6,1.6,0.8
			C294.6,263.5,295.1,263.5,295.6,263.5z"/>
		<path class="st0" d="M319.5,267.1c-1.6,0-2.9-0.3-4.2-0.8c-1.2-0.6-2.3-1.3-3.2-2.2c-0.9-0.9-1.6-2-2-3.2
			c-0.5-1.2-0.7-2.5-0.7-3.9c0-1.4,0.2-2.6,0.7-3.9c0.5-1.2,1.2-2.3,2-3.2c0.9-0.9,2-1.7,3.2-2.2c1.2-0.6,2.6-0.8,4.1-0.8
			c1.5,0,2.9,0.3,4.1,0.8c1.2,0.6,2.3,1.3,3.2,2.2c0.9,0.9,1.6,2,2,3.2c0.5,1.2,0.7,2.5,0.7,3.9c0,1.4-0.2,2.6-0.7,3.9
			c-0.5,1.2-1.2,2.3-2,3.2c-0.9,0.9-2,1.7-3.2,2.2C322.4,266.8,321,267.1,319.5,267.1z M313.6,256.9c0,1,0.2,1.8,0.5,2.6
			c0.3,0.8,0.7,1.5,1.2,2.1c0.5,0.6,1.1,1.1,1.9,1.4c0.7,0.3,1.5,0.5,2.3,0.5s1.6-0.2,2.3-0.5c0.7-0.3,1.3-0.8,1.9-1.4
			c0.5-0.6,0.9-1.3,1.2-2.1c0.3-0.8,0.5-1.7,0.5-2.6c0-0.9-0.2-1.8-0.5-2.6s-0.7-1.5-1.2-2.1c-0.5-0.6-1.1-1.1-1.9-1.4
			c-0.7-0.3-1.5-0.5-2.3-0.5c-0.8,0-1.6,0.2-2.3,0.5c-0.7,0.4-1.3,0.8-1.9,1.4c-0.5,0.6-0.9,1.3-1.3,2.1
			C313.8,255.1,313.6,256,313.6,256.9z"/>
		<path class="st0" d="M344.6,265.7c-0.5,0.3-1.3,0.5-2.2,0.8c-0.9,0.3-1.9,0.5-3,0.5c-0.7,0-1.3-0.1-1.8-0.3
			c-0.6-0.2-1.1-0.4-1.5-0.8c-0.4-0.4-0.8-0.8-1-1.4c-0.3-0.6-0.4-1.2-0.4-2v-12.3H332v-3.2h2.6v-6.5h4.1v6.5h4.3v3.2h-4.3v11
			c0,0.7,0.3,1.2,0.7,1.5c0.4,0.3,0.9,0.5,1.4,0.5c0.6,0,1.1-0.1,1.7-0.3c0.5-0.2,0.9-0.4,1.2-0.5L344.6,265.7z"/>
		<path class="st0" d="M348,243.8v-4.5h4.1v4.5H348z M348,266.7v-19.6h4.1v19.6H348z"/>
		<path class="st0" d="M356.8,256.9c0-1.4,0.2-2.7,0.7-3.9c0.5-1.2,1.2-2.3,2-3.2c0.9-0.9,2-1.7,3.2-2.2c1.3-0.5,2.7-0.8,4.2-0.8
			c2,0,3.8,0.4,5.2,1.3c1.5,0.9,2.6,2.1,3.3,3.5l-4,1.3c-0.5-0.8-1.1-1.5-1.9-1.9c-0.8-0.5-1.7-0.7-2.7-0.7c-0.8,0-1.6,0.2-2.3,0.5
			c-0.7,0.3-1.3,0.8-1.9,1.4c-0.5,0.6-0.9,1.3-1.2,2.1c-0.3,0.8-0.5,1.7-0.5,2.7c0,1,0.2,1.8,0.5,2.6c0.3,0.8,0.7,1.5,1.3,2.1
			c0.5,0.6,1.2,1.1,1.9,1.4c0.7,0.3,1.5,0.5,2.3,0.5c0.5,0,1-0.1,1.5-0.2c0.5-0.1,1-0.3,1.4-0.6c0.4-0.2,0.8-0.5,1.1-0.9
			c0.3-0.3,0.5-0.7,0.7-1.1l4.1,1.2c-0.7,1.5-1.7,2.7-3.3,3.6c-1.5,0.9-3.3,1.4-5.4,1.4c-1.5,0-2.9-0.3-4.2-0.8
			c-1.3-0.6-2.3-1.3-3.2-2.2c-0.9-0.9-1.6-2-2.1-3.2C357,259.5,356.8,258.2,356.8,256.9z"/>
		<path class="st0" d="M387,267.1c-1.6,0-3.1-0.3-4.7-0.8c-1.6-0.5-2.9-1.2-4-2.2l1.7-2.6c1.2,0.9,2.3,1.5,3.5,1.9
			c1.2,0.4,2.3,0.7,3.5,0.7c1.2,0,2.2-0.2,2.9-0.7c0.7-0.5,1.1-1.2,1.1-2c0-0.8-0.4-1.4-1.2-1.8c-0.8-0.4-2.1-0.8-3.8-1.2
			c-1.2-0.3-2.3-0.6-3.2-0.9c-0.9-0.3-1.6-0.7-2.1-1.1c-0.6-0.4-1-0.9-1.2-1.4c-0.3-0.5-0.4-1.2-0.4-1.9c0-1,0.2-1.9,0.6-2.7
			c0.4-0.8,0.9-1.4,1.6-2c0.7-0.5,1.5-0.9,2.4-1.2c0.9-0.3,1.9-0.4,3-0.4c1.5,0,2.9,0.2,4.1,0.7c1.3,0.5,2.4,1.1,3.4,2l-1.8,2.5
			c-1.8-1.5-3.8-2.2-5.8-2.2c-1.1,0-1.9,0.2-2.6,0.7c-0.7,0.4-1.1,1.1-1.1,2.1c0,0.4,0.1,0.7,0.2,1c0.2,0.3,0.4,0.5,0.7,0.7
			c0.3,0.2,0.8,0.4,1.3,0.5c0.5,0.2,1.2,0.3,2,0.5c1.3,0.3,2.5,0.7,3.4,1c1,0.3,1.8,0.7,2.4,1.1c0.6,0.4,1.1,1,1.4,1.5
			c0.3,0.6,0.5,1.3,0.5,2.1c0,1.9-0.7,3.4-2.1,4.4C391.3,266.5,389.4,267.1,387,267.1z"/>
		<path class="st0" d="M411.3,266.7V240h4.2V263h14.3v3.7H411.3z"/>
		<path class="st0" d="M439.3,267.1c-1,0-1.8-0.2-2.6-0.5c-0.8-0.3-1.5-0.7-2.1-1.3c-0.6-0.6-1.1-1.2-1.4-2
			c-0.3-0.8-0.5-1.6-0.5-2.4c0-0.9,0.2-1.8,0.6-2.5c0.4-0.8,1-1.4,1.7-2c0.7-0.6,1.6-1,2.6-1.3c1-0.3,2.1-0.5,3.4-0.5
			c0.9,0,1.8,0.1,2.7,0.2c0.9,0.2,1.7,0.4,2.4,0.7v-1.4c0-1.5-0.4-2.6-1.2-3.4c-0.8-0.8-2-1.2-3.6-1.2c-1.1,0-2.1,0.2-3.1,0.6
			c-1,0.4-2.1,0.9-3.1,1.7l-1.3-2.6c2.5-1.7,5.2-2.6,7.9-2.6c2.7,0,4.8,0.7,6.3,2.1c1.5,1.4,2.3,3.4,2.3,5.9v7.1
			c0,0.9,0.4,1.3,1.1,1.4v3.5c-0.4,0.1-0.7,0.1-1,0.2c-0.3,0-0.6,0-0.8,0c-0.8,0-1.4-0.2-1.9-0.6c-0.4-0.4-0.7-0.9-0.8-1.5l-0.1-1.2
			c-0.9,1.2-2,2-3.2,2.6C442.1,266.8,440.7,267.1,439.3,267.1z M440.4,264c1,0,1.9-0.2,2.8-0.5c0.9-0.4,1.6-0.9,2.1-1.5
			c0.5-0.5,0.8-0.9,0.8-1.4V258c-0.7-0.3-1.4-0.5-2.2-0.6c-0.8-0.2-1.6-0.2-2.3-0.2c-1.5,0-2.7,0.3-3.6,1c-0.9,0.6-1.4,1.5-1.4,2.5
			c0,1,0.4,1.8,1.1,2.5C438.3,263.7,439.3,264,440.4,264z"/>
		<path class="st0" d="M466.7,267.1c-1.5,0-2.9-0.4-4.1-1.1c-1.2-0.7-2.2-1.7-2.9-2.9v3.6h-3.6v-27.4h4.1v11.5
			c0.8-1.3,1.7-2.2,2.9-3c1.2-0.7,2.5-1.1,4.1-1.1c1.3,0,2.5,0.3,3.6,0.8c1.1,0.6,2,1.3,2.8,2.3c0.8,0.9,1.4,2,1.8,3.3
			c0.4,1.2,0.6,2.5,0.6,3.9c0,1.4-0.2,2.7-0.7,3.9c-0.5,1.2-1.1,2.3-2,3.2c-0.8,0.9-1.8,1.6-2.9,2.2
			C469.2,266.8,468,267.1,466.7,267.1z M465.6,263.5c0.9,0,1.7-0.2,2.5-0.5c0.8-0.4,1.4-0.8,1.9-1.4c0.5-0.6,1-1.3,1.3-2.1
			c0.3-0.8,0.5-1.6,0.5-2.5c0-0.9-0.1-1.7-0.4-2.5c-0.3-0.8-0.7-1.5-1.2-2.1c-0.5-0.6-1.1-1.1-1.8-1.5c-0.7-0.4-1.5-0.6-2.3-0.6
			c-1.3,0-2.4,0.4-3.4,1.2c-1,0.8-1.7,1.8-2.3,3v5.2c0.1,0.6,0.4,1.1,0.8,1.6c0.4,0.5,0.8,0.9,1.3,1.2c0.5,0.4,1,0.6,1.6,0.8
			C464.5,263.5,465,263.5,465.6,263.5z"/>
	</g>
	<g>
		<polygon class="st0" points="455.7,148.4 455.7,61.4 430.5,61.4 430.5,170.5 508.6,170.5 508.6,148.4 		"/>
		<path class="st0" d="M388.8,132.2c4.3-2,8-4.8,11-8.3c3-3.5,5.4-7.4,7.1-11.8c1.7-4.4,2.5-9,2.5-13.8c0-4.5-0.9-9-2.7-13.4
			c-1.8-4.4-4.3-8.3-7.4-11.8c-3.1-3.5-6.9-6.3-11.2-8.5c-4.4-2.2-9.1-3.2-14.4-3.2h-40.4l0,22.1H372c1.4,0,2.9,0.3,4.3,0.8
			c1.4,0.6,2.7,1.5,3.8,2.7c1.1,1.2,2,2.8,2.7,4.6c0.7,1.8,1,4,1,6.6c0,4.9-1.1,8.7-3.2,11.2c-2.2,2.6-4.7,3.8-7.7,3.8h-5.9l0,0h0
			h-32.2l43,57.2H410l-27.2-36.2C384.9,133.8,386.9,133.1,388.8,132.2z"/>
		<path class="st0" d="M284.7,148.4c-4.6,0-8.7-0.8-12.3-2.5c-3.6-1.6-6.6-3.9-9-6.8c-2.4-2.9-4.3-6.4-5.5-10.3
			c-1.3-3.9-1.9-8.3-1.9-13c0-4.8,0.6-9.2,1.9-13.1c1.3-3.9,3.2-7.3,5.6-10.2c2.5-2.9,5.5-5.1,9.1-6.6c3.6-1.5,7.6-2.3,12.1-2.3
			h23.9l0-22.1h-23.9c-9,0-16.9,1.4-23.7,4.3c-6.8,2.9-12.4,6.8-17,11.7c-4.6,4.9-8,10.7-10.3,17.3c-2.3,6.6-3.5,13.7-3.5,21.1
			c0,8.3,1.3,15.8,3.8,22.5c2.6,6.7,6.2,12.4,11,17.2c4.8,4.8,10.5,8.5,17.2,11.1c6.7,2.6,14.2,3.9,22.4,3.9h48l-16.7-22.1H284.7z"
			/>
	</g>
	<g>
		<g>
			<path class="st1" d="M189.4,68.4c0-6-3.3-11.3-8.1-14.2l0,0l-32.9-19l0,0c-2.4-1.4-5.3-2.2-8.3-2.2c-3,0-5.7,0.8-8.2,2.2l0,0
				l-24.8,14.3l16.5,9.5l16.5-9.5l32.9,19v38l-49.4,28.5l8,4.6l0,0c2.5,1.5,5.4,2.3,8.4,2.3c3,0,5.8-0.8,8.2-2.2l0,0l33-19.1l0,0
				c4.8-2.8,8.1-8,8.1-14l0,0L189.4,68.4L189.4,68.4z"/>
			<path class="st2" d="M49.4,82.7c-5.2,3-8.2,8.5-8.2,14.1l0,0l0,38l0,0c0,2.8,0.7,5.7,2.2,8.3c1.5,2.6,3.6,4.6,6,6l0,0l24.8,14.3
				l0-19l-16.5-9.5l0-38l32.9-19l49.4,28.5l0-9.2l0,0c0-2.9-0.7-5.8-2.2-8.5c-1.5-2.6-3.6-4.6-6-6l0,0l-33-19.1l0,0
				c-4.9-2.8-11-3-16.2,0l0,0L49.4,82.7L49.4,82.7z"/>
		</g>
		<path class="st3" d="M131.8,196.8c5.2,3,11.4,2.8,16.3,0l0,0l32.9-19l0,0c2.5-1.4,4.6-3.4,6.1-6.1c1.5-2.6,2.2-5.4,2.2-8.1l0,0
			l0-28.6l-16.5,9.5l0,19l-32.9,19l-32.9-19l0-57l-8,4.6l0,0c-2.5,1.4-4.7,3.5-6.2,6.1c-1.5,2.6-2.2,5.4-2.2,8.2l0,0l0,38.1l0,0
			c0,5.6,2.9,11,8.1,14l0,0L131.8,196.8L131.8,196.8z"/>
	</g>
</g>
</svg>
